<svg xmlns="http://www.w3.org/2000/svg" viewBox="0 0 43 41"><g><g><path fill="#8d81ac" d="M42.623 21.954l-3.763 3.788.039 8.759a1.128 1.128 0 0 0-.053.247c.002-.021.005-.04 0-.027a2.305 2.305 0 0 0-.039.14 1.371 1.371 0 0 0-.038.124c-.012.047-.02.094-.037.14l-.028.053a2.238 2.238 0 0 1-.084.166l-.034.048c-.04.06-.085.114-.125.157l-.061.053c-.055.05-.109.1-.153.13-.027.018-.057.03-.085.045l-.182.1c-.16.064-.325.096-.491.096l-3.146.019c-.359 0-.695-.137-.944-.383a1.286 1.286 0 0 1-.386-.926c0-.72.587-1.284 1.336-1.284h1.807l.002-8.092a1.905 1.905 0 0 1 .019-.362l.018-.065c.016-.065.03-.13.064-.211a1.32 1.32 0 0 1 .355-.494l3.223-3.228-2.9-2.901-.156-.125a1.36 1.36 0 0 1-.604-.952 1.337 1.337 0 0 1-.019-.333v-7.98h-1.807a1.333 1.333 0 0 1-1.336-1.328 1.327 1.327 0 0 1 1.332-1.326l3.127.002.073-.001c.16.006.315.04.439.093.036.02.073.042.102.057l.056.028c.032.016.065.03.097.05.058.04.108.088.158.134.021.02.043.038.066.057.042.044.082.095.118.146l.041.06a1.6 1.6 0 0 1 .077.147c.012.03.027.058.042.086.017.048.03.098.044.15.012.045.028.09.047.137.006.028.011.056.014.081.008.096.029.178.05.244l-.038 8.688 3.751 3.788c.264.265.403.615.392 1.03.008.376-.127.72-.38.975zM28.993 2.217l-.629 6.98.007.08c.008.088.01.155.004.213a1.27 1.27 0 0 1-.044.224l-.02.077-2.252 25.988a1.313 1.313 0 0 1-.257.716l-.029.036c-.059.073-.11.128-.159.17l-4.658 3.995c-.231.2-.513.304-.815.304a1.26 1.26 0 0 1-.976-.466c-.018-.023-.031-.048-.047-.073l-3.855-4.673a1.293 1.293 0 0 1-.275-1.024l2.933-33.521c.009-.04.017-.08.023-.118l.012-.079a.572.572 0 0 0 .006-.042c.012-.028.023-.056.031-.082.016-.045.03-.092.054-.147l.032-.054c.027-.048.06-.106.097-.157l.031-.037c.053-.063.099-.111.13-.14l.061-.047c.054-.043.109-.088.162-.117l.155-.074c.027-.013.053-.028.077-.037.046-.016.095-.027.147-.037.059-.012.118-.03.18-.054l.063-.01L19.25 0l8.566.818.098.004c.226 0 .459.152.613.278.329.273.503.692.467 1.117zm-3.301 8.33l-6.01-.533-2.053 23.764 6.012.531zm.653-7.26l-6.01-.531-.423 4.68 6.011.53zM-.003 20.98a1.358 1.358 0 0 1 .392-1.031l3.751-3.788-.039-8.688a1.08 1.08 0 0 0 .052-.244.795.795 0 0 1 .013-.081c.019-.047.035-.092.047-.138.014-.051.027-.101.044-.149.015-.028.03-.057.042-.086.025-.052.05-.103.077-.148l.04-.06c.037-.05.077-.1.119-.145.023-.019.045-.037.066-.057.05-.047.1-.095.158-.133.032-.021.065-.035.097-.051l.056-.028c.03-.015.066-.036.103-.057.123-.053.278-.087.438-.093l.073.001 3.128-.002a1.327 1.327 0 0 1 1.331 1.326c0 .732-.599 1.327-1.336 1.327H6.84v7.981c.008.127.001.24-.018.333a1.36 1.36 0 0 1-.604.952l-.156.125-2.9 2.9 3.223 3.23c.162.144.282.31.355.493.034.081.048.146.064.211l.018.065c.016.1.025.244.02.362v8.091h1.808c.75 0 1.336.564 1.336 1.285 0 .352-.137.68-.385.926-.25.246-.586.383-.945.383l-3.146-.02c-.166 0-.331-.031-.491-.095l-.182-.1c-.028-.014-.058-.027-.085-.044-.044-.031-.098-.081-.153-.13l-.061-.054a1.366 1.366 0 0 1-.125-.157l-.034-.048a2.238 2.238 0 0 1-.084-.166l-.028-.053c-.016-.046-.025-.093-.037-.14a1.344 1.344 0 0 0-.038-.124 2.312 2.312 0 0 0-.039-.14c-.005-.012-.002.006 0 .027a1.133 1.133 0 0 0-.053-.247l.04-8.76-3.764-3.787a1.325 1.325 0 0 1-.38-.974z"/></g></g></svg>
